<?xml version="1.0" standalone="no"?>
<!DOCTYPE svg PUBLIC "-//W3C//DTD SVG 20010904//EN"
 "http://www.w3.org/TR/2001/REC-SVG-20010904/DTD/svg10.dtd">
<svg version="1.0" xmlns="http://www.w3.org/2000/svg"
 width="32.000000pt" height="32.000000pt" viewBox="0 0 32.000000 32.000000"
 preserveAspectRatio="xMidYMid meet">

<g transform="translate(0.000000,32.000000) scale(0.100000,-0.100000)"
fill="#000000" stroke="none">
<path d="M70 210 c0 -28 1 -29 58 -32 43 -2 57 -7 57 -18 0 -11 -14 -16 -57
-18 -57 -3 -58 -4 -58 -32 0 -30 0 -30 58 -30 54 0 60 2 97 40 l39 40 -39 40
c-37 38 -43 40 -97 40 -58 0 -58 0 -58 -30z"/>
</g>
</svg>
